<?xml version="1.0" encoding="utf-8"?>
<!-- Svg Vector Icons : http://www.onlinewebfonts.com/icon -->
<!DOCTYPE svg PUBLIC "-//W3C//DTD SVG 1.1//EN" "http://www.w3.org/Graphics/SVG/1.1/DTD/svg11.dtd">
<svg version="1.1" xmlns="http://www.w3.org/2000/svg" xmlns:xlink="http://www.w3.org/1999/xlink" x="0px" y="0px" viewBox="0 0 1000 1000" enable-background="new 0 0 1000 1000" xml:space="preserve">
<metadata> Svg Vector Icons : http://www.onlinewebfonts.com/icon </metadata>
<g><g transform="translate(0.000000,511.000000) scale(0.100000,-0.100000)"><path d="M2892.3,1313c-291.4-350.8-536.8-644.1-542.5-651.8c-7.7-7.7-500.3,15.3-1094.6,51.8C659,749.4,152.9,780.1,129.9,780.1c-42.2,0-42.2-1.9,15.3-99.7c32.6-55.6,101.6-162.9,153.4-237.7l93.9-136.1L590,293.1C4652.1,30.5,9586.4-293.4,9653.5-301.1l90.1-9.6l51.8,182.1c30.7,99.7,49.8,185.9,42.2,191.7c-9.6,9.6-820.5,82.4-937.4,84.3c-28.8,0-34.5,19.2-34.5,124.6c0,147.6-69,136.1,550.2,93.9c247.3-17.2,452.4-26.8,458.1-23c3.8,5.8,13.4,74.8,19.2,155.3c11.5,136.1,11.5,147.6-23,147.6c-19.2,0-626.8,38.3-1347.6,86.3c-720.8,47.9-1313.1,84.3-1317,80.5c-3.8-1.9-11.5-69-19.2-149.5l-11.5-145.7l118.9-11.5c67.1-7.7,157.2-13.4,201.3-13.4s107.3-5.7,139.9-11.5c55.6-11.5,57.5-13.4,55.6-124.6c0-132.3,46-122.7-402.6-86.3c-166.8,13.4-310.6,32.6-318.2,42.2c-9.6,9.6-36.4,220.5-61.3,469.7l-44.1,452.4l166.8,214.7c92,116.9,166.8,216.6,166.8,220.4c0,3.8-63.3,11.5-138,17.3c-76.7,3.8-902.9,65.2-1834.6,136.1c-931.7,69-1717.6,126.5-1748.3,126.5C3431,1949.4,3356.2,1867,2892.3,1313z M4307,1464.4c228.1-13.4,419.8-28.8,425.6-32.6c11.5-13.4-199.4-906.7-220.4-927.8c-19.2-21.1-1455,84.3-1455,107.4c0,13.4,548.3,772.5,609.6,845.4C3701.3,1495.1,3730,1497,4307,1464.4z M5806.1,1382c295.2-17.3,542.5-34.5,546.4-38.3c11.5-11.5,46-985.3,36.4-994.9c-9.6-9.6-1433.9,99.7-1445.4,109.3c-5.7,7.7,157.2,879.9,174.5,931.7C5129.4,1418.4,5154.3,1418.4,5806.1,1382z M8516.7,421.6l80.5-9.6V298.9c0-61.3-5.8-115-13.4-118.8c-11.5-5.8-584.7,34.5-613.4,42.2c-3.8,1.9-5.8,55.6-5.8,118.9v118.8l235.8-13.4C8328.9,438.8,8470.7,429.3,8516.7,421.6z"/><path d="M584.3,78.4c0-49.8,531-580.9,786-784c580.8-465.8,1284.4-801.3,1955.3-935.5c448.6-92,498.4-92,3335.5-86.3l2672.3,5.7l176.3,603.8c147.6,508,170.6,603.8,143.8,609.6c-17.2,1.9-2010.9,132.3-4430.1,291.4C2804.1-59.6,770.2,74.6,705,82.3C637.9,88,584.3,86.1,584.3,78.4z"/></g></g>
</svg>