<?xml version="1.0" encoding="UTF-8" standalone="no"?>
<!-- Created with Inkscape (http://www.inkscape.org/) -->
<svg
    xmlns:inkscape="http://www.inkscape.org/namespaces/inkscape"
    xmlns:rdf="http://www.w3.org/1999/02/22-rdf-syntax-ns#"
    xmlns="http://www.w3.org/2000/svg"
    xmlns:cc="http://creativecommons.org/ns#"
    xmlns:dc="http://purl.org/dc/elements/1.1/"
    xmlns:sodipodi="http://sodipodi.sourceforge.net/DTD/sodipodi-0.dtd"
    xmlns:svg="http://www.w3.org/2000/svg"
    xmlns:ns1="http://sozi.baierouge.fr"
    xmlns:xlink="http://www.w3.org/1999/xlink"
    id="svg3323"
    sodipodi:docname="home.svg"
    viewBox="0 0 134.25 105.06"
    sodipodi:version="0.32"
    version="1.0"
    inkscape:output_extension="org.inkscape.output.svg.inkscape"
    inkscape:version="0.46+pre4"
    sodipodi:docbase="C:\Important\svg"
  >
  <sodipodi:namedview
      id="base"
      bordercolor="#666666"
      inkscape:pageshadow="2"
      guidetolerance="10.0"
      pagecolor="#ffffff"
      gridtolerance="10.0"
      inkscape:zoom="0.8125"
      objecttolerance="10.0"
      borderopacity="1.0"
      inkscape:current-layer="svg3323"
      inkscape:cx="438.61548"
      inkscape:cy="-63.718918"
      inkscape:window-y="-4"
      inkscape:window-x="-4"
      inkscape:window-height="938"
      showgrid="false"
      inkscape:pageopacity="0.0"
      inkscape:window-width="1280"
  />
  <path
      id="path11341"
      style="stroke-linejoin:round;fill-rule:evenodd;stroke:#000000;stroke-linecap:round;stroke-width:4;fill:#000000"
      d="m67.125 2l-65.125 44.125h130.25l-27.59-18.687v-23.469l-18.472-0.0002v10.937l-19.063-12.906z"
  />
  <path
      id="rect11344"
      style="stroke-linejoin:round;fill-rule:evenodd;stroke:#000000;stroke-linecap:round;stroke-width:4.0894;fill:#000000"
      d="m21 52.031v50.969h91.62v-50.969h-91.62zm14.125 11.657h21.531v21.531h-21.531v-21.531zm38.156 6.437h22.157v32.625h-22.157v-32.625z"
  />
  <path
      id="path11352"
      style="fill-rule:evenodd;fill:#000000"
      d="m43.75 63.969v8.469h-9.25v4h9.25v9.093h4v-9.093h8.594v-4h-8.594v-8.469h-4z"
  />
  <metadata
    >
    <rdf:RDF
      >
      <cc:Work
        >
        <dc:format
          >image/svg+xml</dc:format
        >
        <dc:type
            rdf:resource="http://purl.org/dc/dcmitype/StillImage"
        />
        <cc:license
            rdf:resource="http://creativecommons.org/licenses/publicdomain/"
        />
        <dc:publisher
          >
          <cc:Agent
              rdf:about="http://openclipart.org/"
            >
            <dc:title
              >Openclipart</dc:title
            >
          </cc:Agent
          >
        </dc:publisher
        >
        <dc:title
          >House icon</dc:title
        >
        <dc:date
          >2009-11-26T21:06:53</dc:date
        >
        <dc:description
          >An image of house to be used for multiple purposes, e.g. as an symbol/icon for home.</dc:description
        >
        <dc:source
          >https://openclipart.org/detail/28497/house-icon-by-purzen</dc:source
        >
        <dc:creator
          >
          <cc:Agent
            >
            <dc:title
              >purzen</dc:title
            >
          </cc:Agent
          >
        </dc:creator
        >
        <dc:subject
          >
          <rdf:Bag
            >
            <rdf:li
              >back</rdf:li
            >
            <rdf:li
              >building</rdf:li
            >
            <rdf:li
              >cartoon</rdf:li
            >
            <rdf:li
              >home</rdf:li
            >
            <rdf:li
              >house</rdf:li
            >
            <rdf:li
              >icon</rdf:li
            >
            <rdf:li
              >outline</rdf:li
            >
            <rdf:li
              >silhouette</rdf:li
            >
            <rdf:li
              >symbol</rdf:li
            >
            <rdf:li
              >web</rdf:li
            >
          </rdf:Bag
          >
        </dc:subject
        >
      </cc:Work
      >
      <cc:License
          rdf:about="http://creativecommons.org/licenses/publicdomain/"
        >
        <cc:permits
            rdf:resource="http://creativecommons.org/ns#Reproduction"
        />
        <cc:permits
            rdf:resource="http://creativecommons.org/ns#Distribution"
        />
        <cc:permits
            rdf:resource="http://creativecommons.org/ns#DerivativeWorks"
        />
      </cc:License
      >
    </rdf:RDF
    >
  </metadata
  >
</svg
>
.7401,0.2397-2.3963
		c0.0098-98.6553,0.0117-197.3107-0.0071-295.9661c-0.0002-1.1351,0.1549-2.788-0.4895-3.3218
		c-4.3671-3.6174-8.9298-6.9985-14.4305-11.2254c0,99.1678,0,196.7509,0,294.5935c-195.135,0-389.8423,0-585.1014,0
		c0-97.4709,0-194.6597,0-292.8019c-2.442,1.5864-3.9577,2.892-5.7101,3.6514c-6.0413,2.6179-7.2837,7.0765-7.2686,13.4672
		c0.2281,96.1552,0.1584,192.311,0.1585,288.4666C418.2575,587.5024,418.2574,589.1591,418.2574,591.3785z"/>
	<path fill="#FFFFFF" d="M518.6942,779.4246c0,32.9317,0,65.6676,0,98.8132c-55.4914,0-110.826,0-166.4348,0
		c0-32.9515,0-65.6953,0-98.8132C407.711,779.4246,463.0592,779.4246,518.6942,779.4246z"/>
	<path fill="#FFFFFF" d="M1111.6324,878.3034c0-33.1304,0-65.862,0-98.9224c55.4823,0,110.6996,0,166.3152,0
		c0,32.8635,0,65.7181,0,98.9224C1222.6564,878.3034,1167.4475,878.3034,1111.6324,878.3034z"/>
	<path fill="#FFFFFF" d="M518.6962,898.2253c0,32.9987,0,65.7414,0,98.8515c-55.383,0-110.6161,0-166.28,0
		c0-32.7155,0-65.5824,0-98.8515C407.728,898.2253,463.0698,898.2253,518.6962,898.2253z"/>
	<path fill="#FFFFFF" d="M1278.0607,997.1772c-55.6248,0-110.853,0-166.3871,0c0-32.9977,0-65.7307,0-98.9079
		c55.4574,0,110.7794,0,166.3871,0C1278.0607,931.1838,1278.0607,963.9308,1278.0607,997.1772z"/>
	<path fill="#FFFFFF" d="M332.6462,779.3964c0,33.0572,0,65.7813,0,98.8779c-50.2829,0-100.3145,0-150.7946,0
		c0-32.8672,0-65.6994,0-98.8779C231.9576,779.3964,281.999,779.3964,332.6462,779.3964z"/>
	<path fill="#FFFFFF" d="M181.6764,997.1132c0-33.0919,0-65.8225,0-98.9217c50.3056,0,100.3405,0,150.8009,0
		c0,32.9123,0,65.7512,0,98.9217C282.337,997.1132,232.292,997.1132,181.6764,997.1132z"/>
	<path fill="#FFFFFF" d="M1091.9347,878.3662c-50.1973,0-100.1273,0-150.4652,0c0-32.8788,0-65.7519,0-98.9704
		c50.0288,0,100.0748,0,150.4652,0C1091.9347,812.3513,1091.9347,845.2176,1091.9347,878.3662z"/>
	<path fill="#FFFFFF" d="M1092.0809,898.2084c0,33.0757,0,65.704,0,98.7837c-50.0822,0-100.1368,0-150.6056,0
		c0-32.641,0-65.5192,0-98.7837C991.4813,898.2084,1041.5242,898.2084,1092.0809,898.2084z"/>
	<path fill="#FFFFFF" d="M713.8451,538.9847c-68.8229,0-137.3735,0-206.2748,0c0-50.2619,0-100.3246,0-150.8536
		c68.6158,0,137.2838,0,206.2748,0C713.8451,438.2534,713.8451,488.3203,713.8451,538.9847z"/>
	<path fill="#FFFFFF" d="M741.553,538.8709c0-50.289,0-100.3589,0-150.8174c68.7588,0,137.4485,0,206.4027,0
		c0,50.3018,0,100.3766,0,150.8174C879.177,538.8709,810.5078,538.8709,741.553,538.8709z"/>
	<path fill="#FFFFFF" d="M724.7808,2.5048c15.6205,11.715,31.0774,23.2962,46.5226,34.8928
		c94.8613,71.2234,189.7006,142.476,284.6501,213.5818c3.7939,2.8412,5.1287,5.7155,5.0421,10.3346
		c-0.2833,15.1158-0.1063,30.2402-0.1063,46.3962c-2.2045-1.4088-3.7198-2.2502-5.0978-3.2762
		c-39.0144-29.0511-78.1646-57.9227-116.9849-87.2311C869.3965,164.8,800.1868,112.1316,730.89,59.5786
		c-1.3224-1.0029-2.686-1.9518-4.0685-2.9534C614.9386,138.4559,506.0909,224.1817,393.0201,304.168
		c-0.5267-0.3836-1.0535-0.7673-1.5803-1.1509c0-3.7566-0.0001-7.5131,0.0001-11.2697c0.0002-9.9996,0.197-20.005-0.0989-29.9958
		c-0.1131-3.8221,1.299-6.0424,4.214-8.2601c53.3071-40.5526,106.5406-81.2019,159.7935-121.8258
		C610.8518,89.325,666.3591,46.9894,721.8661,4.6534C722.6577,4.0496,723.4686,3.4709,724.7808,2.5048z M724.8033,16.8825
		c-1.941,1.4426-3.4227,2.5108-4.8697,3.6241c-68.7867,52.9237-137.5696,105.8525-206.355,158.778
		c-35.3833,27.225-70.7819,54.4301-106.1204,81.7131c-1.7249,1.3317-3.9391,3.1917-4.1896,5.0407
		c-0.61,4.5046-0.1987,9.1475-0.1987,14.9302c108.4409-82.6181,215.9423-164.5205,323.5718-246.5205
		c107.8051,82.1327,215.2898,164.0214,323.6255,246.5584c0-3.7933-0.3085-6.3119,0.0615-8.7264
		c0.8862-5.7833-1.5471-9.2578-6.1735-12.7629c-89.8888-68.104-179.6338-136.3978-269.4077-204.6534
		C758.1854,42.2714,741.6257,29.6756,724.8033,16.8825z"/>
	<path fill="#FFFFFF" d="M713.9161,274.8738c0,33.1223,0,65.7342,0,98.645c-68.8283,0-137.411,0-206.3423,0
		c0-32.9219,0-65.6214,0-98.645C576.3651,274.8738,644.9329,274.8738,713.9161,274.8738z"/>
	<path fill="#FFFFFF" d="M947.8389,373.4984c-68.6476,0-137.2292,0-206.1897,0c0-32.8482,0-65.5453,0-98.5958
		c68.6848,0,137.2484,0,206.1897,0C947.8389,307.7281,947.8389,340.449,947.8389,373.4984z"/>
	<path fill="#FFFFFF" d="M418.2574,591.3785c0-2.2194,0.0001-3.8761,0-5.5328c-0.0001-96.1556,0.0696-192.3115-0.1585-288.4666
		c-0.0151-6.3906,1.2273-10.8492,7.2686-13.4672c1.7524-0.7593,3.2682-2.065,5.7101-3.6514c0,98.1423,0,195.331,0,292.8019
		c195.2591,0,389.9664,0,585.1014,0c0-97.8427,0-195.4257,0-294.5935c5.5007,4.2269,10.0635,7.608,14.4305,11.2254
		c0.6444,0.5338,0.4893,2.1866,0.4895,3.3218c0.0188,98.6553,0.0168,197.3107,0.0071,295.9661c0,0.6563-0.1274,1.3126-0.2397,2.3963
		C826.8073,591.3785,622.8008,591.3785,418.2574,591.3785z"/>
	<path d="M724.8033,16.8825c16.8224,12.7931,33.3821,25.3889,49.9444,37.9813c89.7739,68.2556,179.5189,136.5494,269.4077,204.6534
		c4.6263,3.5051,7.0597,6.9796,6.1735,12.7629c-0.37,2.4145-0.0615,4.933-0.0615,8.7264
		c-108.3357-82.537-215.8204-164.4257-323.6255-246.5584c-107.6296,82-215.1309,163.9024-323.5718,246.5205
		c0-5.7827-0.4113-10.4256,0.1987-14.9302c0.2504-1.8491,2.4647-3.709,4.1896-5.0407
		c35.3384-27.283,70.7371-54.4881,106.1204-81.7131c68.7853-52.9255,137.5682-105.8543,206.355-158.778
		C721.3806,19.3933,722.8622,18.3252,724.8033,16.8825z"/>
</g>
</svg>
