<?xml version="1.0" encoding="utf-8"?>
<!-- Svg Vector Icons : http://www.onlinewebfonts.com/icon -->
<!DOCTYPE svg PUBLIC "-//W3C//DTD SVG 1.1//EN" "http://www.w3.org/Graphics/SVG/1.1/DTD/svg11.dtd">
<svg version="1.1" xmlns="http://www.w3.org/2000/svg" xmlns:xlink="http://www.w3.org/1999/xlink" x="0px" y="0px" viewBox="0 0 1000 1000" enable-background="new 0 0 1000 1000" xml:space="preserve">
<metadata> Svg Vector Icons : http://www.onlinewebfonts.com/icon </metadata>
<g><path d="M918.4,951.8C859.8,882.4,754.8,829.5,627.8,808c-12.4-74.3-34.6-109.1-35.2-110c9.7-4.5,21.3-6.1,34.6-3.1c16.2,3.7,27.3,12.3,34,23.2c2,3.2,6.9,2.1,7.5-1.6c0.8-5.4,0.6-11.3-1.3-17.9c-4.6-16.3-17.3-29.9-33.9-33.4c-10.8-2.3-21.5-0.5-30.6,4.3c8.4-7.3,18.9-13.2,31.6-17.3c27.5-8.8,51.4-4.5,70.1,7.4c3.2,2,7-0.9,6-4.5c-3.1-11.2-9.3-22.2-20.7-32.2c-19.2-16.9-46-24.2-70.4-16.2c-7.9,2.6-15,6.4-21.2,11.3c0.5-0.6,0.9-1.2,1.4-1.7c17.9-21.1,39.5-30.2,60.7-30.7c4.6-0.1,6.7-6.1,3.1-9.1c-7.5-6.3-16.8-11.2-28.8-13.8c-27.1-5.8-55.6,2.3-72.9,24c-6.2,7.8-10.5,16.5-13,25.5c-7.3-5.9-15.9-10.5-25.4-13.2c-26.6-7.5-54.5,2.5-73.2,23c-8.1,8.8-12.7,18-15.2,27.3c-1.3,4.7,4.2,8.6,8.3,5.9c17.5-11.7,40-16.7,66.6-10.1c0.7,0.2,1.4,0.4,2.2,0.6c-7.8-0.3-15.9,0.7-23.8,3.2c-24.5,7.6-41.9,29.2-47.7,54.2c-3.3,14.4-2.1,26.6,1.6,37.3c1.4,3.9,6.7,4,8.3,0.2c8.4-20.1,25.2-37.2,52.3-45.9c12.7-4.1,24.7-5.4,35.7-4.4c-10.2,1.4-20,6.2-27.4,14.4c-11.4,12.5-13.8,30.9-8,46.9c2.3,6.4,5.6,11.4,9.5,15.4c2.6,2.6,7.2,0.6,6.9-3c-1-12.8,3-26.1,14.1-38.6c8.5-9.6,18.2-15.7,28-17.1l0,0c0,0,15.6,38.3,17.7,93.6c-26-2.7-52.6-4.2-79.9-4.2c-66.7,0-130.1,8.3-187.5,23.4C324.3,561.4,483.8,389.6,484,388.8v0c19.7,13,36.3,32.9,47,60.8c14,36.3,11.6,69.2-1.1,96.3c-3.6,7.8,4.9,16,12.7,12.4c11.7-5.4,23-13.6,33.3-25.7c25.6-30.1,35.6-72.2,21-109c-9.5-24-26.9-42.5-47.9-53.9c24.9,6.9,50,19.5,74.5,38.9c51.9,41.3,74.6,92.4,76.4,143.2c0.3,9.5,12,13.8,18.2,6.4c16.9-20.2,29.6-45.9,34.2-80.1c7.9-59.3-12.5-120.7-59.6-157.6c-15.2-11.9-31.9-20.8-49.3-26.6c1.7,0.2,3.5,0.3,5.2,0.5c63.4,7.4,108.6,36.8,137.2,76.7c6.7,9.3,21.8,5.3,22.9-6c2.2-22.2-0.5-46.1-10.8-72c-23.9-60.1-76.5-104.9-140.9-110.3c-23.1-2-45.6,1-66.4,7.9c2-21.8-0.2-44.3-7.3-66.3C563.4,62.9,507.8,21.7,443.9,12c-28.3-4.3-52.8-1.2-74.3,6.4c-10.2,3.6-10.7,18.4-0.7,22.4c46,18.6,85.5,56.1,107.4,116.9c0.6,1.7,1.2,3.3,1.7,5c-9.6-15.6-22-29.9-37.1-42c-46.5-37.6-111-43.6-167-22.5c-33.2,12.5-55.8,31.5-71.7,53.3c-5.2,7,0.9,16.6,9.4,14.8c50.6-10.6,106.4-0.3,159.1,41.6c24.4,19.4,42.4,41,54.8,63.7c-15.9-18-37.9-30.7-63.4-34.5c-39.1-5.9-77.9,13.3-101.4,45.1c-9.4,12.7-14.8,25.4-17.5,38c-1.8,8.5,8.2,15,15.1,9.6c23.6-18.3,55-28,93.4-22.6c31.5,4.4,55.8,17.4,73.1,35.2c-3.1,2.6-195.6,146.3-321.7,586.2c-7.7,7.3-14.8,14.9-21.4,22.7c-13,15.2-2,38.8,18,38.8h800.4C919.9,990.1,931.1,966.9,918.4,951.8z"/></g>
</svg>